<svg xmlns="http://www.w3.org/2000/svg" width="67.303" height="67.303" viewBox="0 0 67.303 67.303">
  <g id="Group_64" data-name="Group 64" transform="translate(-357 -5642)">
    <path id="Path_182" data-name="Path 182" d="M80.666,82.975a5.1,5.1,0,1,0-5.1,5.1A5.107,5.107,0,0,0,80.666,82.975Zm-8.519,0a3.418,3.418,0,1,1,3.418,3.418A3.422,3.422,0,0,1,72.147,82.975Z" transform="translate(337.307 5621.228)" fill="#0092ae"/>
    <path id="Path_183" data-name="Path 183" d="M55.692,59.71a5.1,5.1,0,1,0-5.1-5.1A5.106,5.106,0,0,0,55.692,59.71Zm0-8.519a3.418,3.418,0,1,1-3.419,3.419A3.422,3.422,0,0,1,55.692,51.191Z" transform="translate(340.461 5625.729)" fill="#0092ae"/>
    <path id="Path_184" data-name="Path 184" d="M19.58,14.968A4.968,4.968,0,1,0,24.548,10,4.975,4.975,0,0,0,19.58,14.968Zm8.254,0a3.285,3.285,0,1,1-3.285-3.285A3.289,3.289,0,0,1,27.834,14.968Z" transform="translate(345.383 5632)" fill="#0092ae"/>
    <path id="Path_185" data-name="Path 185" d="M15.8,70.634a5.689,5.689,0,1,0,5.689,5.689A5.7,5.7,0,0,0,15.8,70.634Zm0,9.7a4.006,4.006,0,1,1,4.006-4.007A4.012,4.012,0,0,1,15.8,80.329Z" transform="translate(346.885 5622.377)" fill="#0092ae"/>
    <path id="Path_186" data-name="Path 186" d="M82.761,12.255A5.34,5.34,0,1,0,88.1,17.6,5.346,5.346,0,0,0,82.761,12.255Zm0,9A3.657,3.657,0,1,1,86.418,17.6,3.661,3.661,0,0,1,82.761,21.252Z" transform="translate(336.203 5631.642)" fill="#0092ae"/>
    <path id="Path_187" data-name="Path 187" d="M41.368,44.492a5.34,5.34,0,1,0-5.339-5.34A5.346,5.346,0,0,0,41.368,44.492Zm0-9a3.657,3.657,0,1,1-3.657,3.657A3.661,3.661,0,0,1,41.368,35.5Z" transform="translate(342.772 5628.221)" fill="#0092ae"/>
    <path id="Path_188" data-name="Path 188" d="M69.317,36.039A27.364,27.364,0,0,0,25.128,24.4c-7.795-1.09-12.94.025-14.486,3.147-1.573,3.176.452,7.806,5.691,13.054A27.363,27.363,0,0,0,63.086,63.773a35.222,35.222,0,0,0,4.663.343c4.773,0,7.971-1.273,9.185-3.723,1.546-3.121-.677-7.885-6.259-13.418A27.308,27.308,0,0,0,69.317,36.039ZM43.406,19.088A25.687,25.687,0,0,1,62.47,61.974c-6.927-1.064-15.28-3.893-23.624-8.027s-15.659-9.059-20.7-13.923A25.735,25.735,0,0,1,43.406,19.088ZM12.151,28.3c1.086-2.194,5.313-3.063,11.416-2.393A27.317,27.317,0,0,0,16.726,38.6C12.678,34.311,11.012,30.6,12.151,28.3ZM31.979,67.809A25.73,25.73,0,0,1,17.84,42.051,88.768,88.768,0,0,0,38.1,55.456,88.555,88.555,0,0,0,61.049,63.44,25.732,25.732,0,0,1,31.979,67.809Zm43.446-8.164c-1.139,2.3-5.106,3.225-10.97,2.6a27.349,27.349,0,0,0,5.964-13.127C74.647,53.565,76.514,57.451,75.426,59.645Z" transform="translate(346.884 5630.822)" fill="#0092ae"/>
    <path id="Path_189" data-name="Path 189" d="M63.179,30.938a14.786,14.786,0,0,1,7.194,15.591.842.842,0,0,0,.67.983.868.868,0,0,0,.158.015.842.842,0,0,0,.826-.684,16.468,16.468,0,0,0-8.014-17.366.841.841,0,1,0-.833,1.461Z" transform="translate(338.531 5628.927)" fill="#0092ae"/>
  </g>
</svg>
