<svg xmlns="http://www.w3.org/2000/svg" width="67.3" height="67.303" viewBox="0 0 67.3 67.303">
  <g id="Group_78" data-name="Group 78" transform="translate(-3736 -6584)">
    <g id="Group_74" data-name="Group 74" transform="translate(3351.985 5620)">
      <path id="Path_198" data-name="Path 198" d="M67.651,13.2a10.927,10.927,0,0,0-15.454,0,23.486,23.486,0,0,0-5.369,10.207A12.893,12.893,0,0,0,38.98,24.97a17.446,17.446,0,0,0-3.233-4.933A9.329,9.329,0,0,0,22.555,33.23a20.122,20.122,0,0,0,9.764,4.786,29.156,29.156,0,0,0,2.757,9.322H29.856a4.6,4.6,0,0,0-4.6,4.6v.157a4.6,4.6,0,0,0,4.285,4.582l1.825,19.864a.842.842,0,0,0,.838.764H58.295a.842.842,0,0,0,.838-.764l1.826-19.868a4.6,4.6,0,0,0,4.205-4.578v-.157a4.6,4.6,0,0,0-4.6-4.6H55.577a27.044,27.044,0,0,0,2.868-10.913,13.115,13.115,0,0,0-.264-2.619,23.389,23.389,0,0,0,9.469-5.152A10.939,10.939,0,0,0,67.651,13.2ZM23.744,21.227a7.646,7.646,0,0,1,10.814,0,15.975,15.975,0,0,1,3,4.675,13.082,13.082,0,0,0-5.319,10.384,18.507,18.507,0,0,1-8.491-4.245A7.656,7.656,0,0,1,23.744,21.227ZM57.527,75.621H32.974l-1.739-18.93H59.267Zm5.954-23.685v.157a2.919,2.919,0,0,1-2.915,2.915H29.856a2.919,2.919,0,0,1-2.915-2.915v-.157a2.919,2.919,0,0,1,2.915-2.915h30.71A2.919,2.919,0,0,1,63.481,51.936Zm-9.777-4.6H36.947a26.312,26.312,0,0,1-3.037-10.913,11.426,11.426,0,0,1,22.853,0A26.2,26.2,0,0,1,53.7,47.338Zm4.025-15.151a13.142,13.142,0,0,0-9.243-8.472,21.989,21.989,0,0,1,4.9-9.324A9.245,9.245,0,0,1,66.461,27.465,21.571,21.571,0,0,1,57.729,32.187Z" transform="translate(372 954)" fill="#59dda4"/>
      <path id="Path_199" data-name="Path 199" d="M41.247,41.724a.841.841,0,0,0,.595-1.437l-.77-.769a.841.841,0,0,0-1.19,1.19l.77.769A.84.84,0,0,0,41.247,41.724Z" transform="translate(368.856 949.354)" fill="#59dda4"/>
      <path id="Path_200" data-name="Path 200" d="M26.133,30.935a.841.841,0,1,0-1.19,1.19l.769.769A.841.841,0,1,0,26.9,31.7Z" transform="translate(371.227 950.716)" fill="#59dda4"/>
      <path id="Path_201" data-name="Path 201" d="M49.671,47.47a.841.841,0,1,0-1.19,1.19l.769.769a.841.841,0,1,0,1.19-1.19Z" transform="translate(367.491 948.092)" fill="#59dda4"/>
      <path id="Path_202" data-name="Path 202" d="M56.674,34.421a.841.841,0,0,0-.841-.841H54.745a.841.841,0,1,0,0,1.683h1.088A.841.841,0,0,0,56.674,34.421Z" transform="translate(366.592 950.258)" fill="#59dda4"/>
      <path id="Path_203" data-name="Path 203" d="M34.5,25.888a.841.841,0,0,0-.841-.841H32.573a.841.841,0,0,0,0,1.683H33.66A.841.841,0,0,0,34.5,25.888Z" transform="translate(370.111 951.612)" fill="#59dda4"/>
      <path id="Path_204" data-name="Path 204" d="M46.313,42.382H45.225a.841.841,0,1,0,0,1.683h1.088a.841.841,0,0,0,0-1.683Z" transform="translate(368.103 948.861)" fill="#59dda4"/>
      <path id="Path_205" data-name="Path 205" d="M49.328,32.828a.841.841,0,0,0,0-1.683H48.241a.841.841,0,0,0,0,1.683Z" transform="translate(367.624 950.644)" fill="#59dda4"/>
      <path id="Path_206" data-name="Path 206" d="M52.727,38.917l-.769-.769a.841.841,0,1,0-1.19,1.19l.769.769a.841.841,0,1,0,1.19-1.19Z" transform="translate(367.128 949.572)" fill="#59dda4"/>
      <path id="Path_207" data-name="Path 207" d="M30.819,28.915a.841.841,0,1,0-1.19,1.19l.769.769a.841.841,0,1,0,1.19-1.19Z" transform="translate(370.483 951.037)" fill="#59dda4"/>
      <path id="Path_208" data-name="Path 208" d="M57.655,47.013a.841.841,0,1,0-1.19,1.19l.769.769a.841.841,0,1,0,1.19-1.19Z" transform="translate(366.224 948.165)" fill="#59dda4"/>
      <path id="Path_209" data-name="Path 209" d="M53.815,42.628l-.77.769a.841.841,0,0,0,1.19,1.19l.77-.769a.841.841,0,0,0-1.19-1.19Z" transform="translate(366.767 948.861)" fill="#59dda4"/>
      <path id="Path_210" data-name="Path 210" d="M58.112,39.062a.841.841,0,0,0-1.19,1.19l.77.769a.841.841,0,0,0,1.19-1.19Z" transform="translate(366.152 949.427)" fill="#59dda4"/>
      <path id="Path_211" data-name="Path 211" d="M45.415,37.912a.839.839,0,0,0,.595-.246l.769-.769a.841.841,0,1,0-1.19-1.19l-.769.769a.841.841,0,0,0,.595,1.436Z" transform="translate(368.073 949.959)" fill="#59dda4"/>
      <path id="Path_212" data-name="Path 212" d="M27.288,24.835l-.77.769a.841.841,0,0,0,1.19,1.19l.77-.769a.841.841,0,0,0-1.19-1.19Z" transform="translate(370.977 951.685)" fill="#59dda4"/>
      <path id="Path_213" data-name="Path 213" d="M65.292,22.143H64.2a.841.841,0,0,0,0,1.683h1.088a.841.841,0,0,0,0-1.683Z" transform="translate(365.09 952.073)" fill="#59dda4"/>
      <path id="Path_214" data-name="Path 214" d="M71.706,19.868a.841.841,0,0,0,0-1.19l-.77-.769a.841.841,0,0,0-1.19,1.19l.77.769a.841.841,0,0,0,1.19,0Z" transform="translate(364.116 952.784)" fill="#59dda4"/>
      <path id="Path_215" data-name="Path 215" d="M64.393,17.674a.84.84,0,0,0,.595-.246l.77-.769a.841.841,0,0,0-1.19-1.19l-.77.769a.842.842,0,0,0,.595,1.437Z" transform="translate(365.06 953.171)" fill="#59dda4"/>
      <path id="Path_216" data-name="Path 216" d="M71.806,23.921l-.769.769a.841.841,0,1,0,1.19,1.19L73,25.111a.841.841,0,1,0-1.19-1.19Z" transform="translate(363.912 951.83)" fill="#59dda4"/>
      <path id="Path_217" data-name="Path 217" d="M41.733,45.571l-.769.769a.841.841,0,1,0,1.19,1.19l.769-.769a.841.841,0,0,0-1.19-1.19Z" transform="translate(368.684 948.394)" fill="#59dda4"/>
    </g>
    <rect id="Rectangle_46" data-name="Rectangle 46" width="67.3" height="67.3" transform="translate(3736 6584)" fill="none"/>
  </g>
</svg>
