<svg xmlns="http://www.w3.org/2000/svg" width="67.304" height="67.303" viewBox="0 0 67.304 67.303">
  <g id="noun_Culture_2286119" transform="translate(-10 -10)">
    <path id="Path_21" data-name="Path 21" d="M49.841,17.887a.841.841,0,0,0,.841-.841v-6.2a.841.841,0,0,0-1.683,0v6.2A.841.841,0,0,0,49.841,17.887Z" transform="translate(-6.19 0)" fill="#ff417f"/>
    <path id="Path_22" data-name="Path 22" d="M61.622,20.319a.84.84,0,0,0,1.1-.455L65.1,14.132a.841.841,0,1,0-1.554-.644L61.167,19.22A.842.842,0,0,0,61.622,20.319Z" transform="translate(-8.111 -0.471)" fill="#ff417f"/>
    <path id="Path_23" data-name="Path 23" d="M72.2,27.493a.839.839,0,0,0,.595-.246l4.387-4.387A.841.841,0,0,0,76,21.669l-4.387,4.387a.841.841,0,0,0,.595,1.436Z" transform="translate(-9.739 -1.813)" fill="#ff417f"/>
    <path id="Path_24" data-name="Path 24" d="M78.282,37.613a.84.84,0,0,0,1.1.455l5.732-2.374a.841.841,0,1,0-.644-1.554l-5.732,2.374A.842.842,0,0,0,78.282,37.613Z" transform="translate(-10.827 -3.821)" fill="#ff417f"/>
    <path id="Path_25" data-name="Path 25" d="M13.488,35.694l5.732,2.374a.841.841,0,1,0,.644-1.554l-5.732-2.374a.841.841,0,1,0-.644,1.554Z" transform="translate(-0.471 -3.821)" fill="#ff417f"/>
    <path id="Path_26" data-name="Path 26" d="M26.057,27.246a.841.841,0,1,0,1.19-1.19l-4.387-4.387a.841.841,0,0,0-1.19,1.19Z" transform="translate(-1.813 -1.813)" fill="#ff417f"/>
    <path id="Path_27" data-name="Path 27" d="M36.514,19.864a.841.841,0,1,0,1.554-.644l-2.374-5.732a.841.841,0,1,0-1.554.644Z" transform="translate(-3.821 -0.471)" fill="#ff417f"/>
    <path id="Path_28" data-name="Path 28" d="M26.192,71.044a91.768,91.768,0,0,0-15.051-7.4.841.841,0,0,0-.6,1.572A89.989,89.989,0,0,1,25.015,72.3c-1.877,2.031-3.731,4.19-5.544,6.515A.842.842,0,0,0,20.8,79.85c21.313-27.336,48.09-33.261,55.789-34.425a.841.841,0,0,0-.251-1.664,76.129,76.129,0,0,0-13.528,3.477,19.233,19.233,0,0,0-38.464-.06,76.119,76.119,0,0,0-13.377-3.416.841.841,0,0,0-.251,1.664,84.62,84.62,0,0,1,31.4,12.206,94.461,94.461,0,0,0-7.79,5.816A90.591,90.591,0,0,0,11.063,53.268a.841.841,0,1,0-.444,1.623A88.873,88.873,0,0,1,32.979,64.6C30.7,66.56,28.433,68.7,26.192,71.044Zm-.157-23.26c0-.154-.012-.308-.012-.463a17.552,17.552,0,0,1,35.1,0c0,.178-.009.354-.015.532a92.112,92.112,0,0,0-17.445,8.76A91.737,91.737,0,0,0,26.035,47.784Z" transform="translate(0 -2.87)" fill="#ff417f"/>
    <path id="Path_29" data-name="Path 29" d="M80.737,58.013A92.253,92.253,0,0,0,38.568,83.495a.841.841,0,1,0,1.214,1.164,90.576,90.576,0,0,1,41.4-25.023.841.841,0,1,0-.444-1.623Z" transform="translate(-4.497 -7.615)" fill="#ff417f"/>
    <path id="Path_30" data-name="Path 30" d="M83.718,70.347a92.506,92.506,0,0,0-25.8,15.034.841.841,0,1,0,1.068,1.3A90.822,90.822,0,0,1,84.318,71.919a.841.841,0,0,0-.6-1.572Z" transform="translate(-7.556 -9.569)" fill="#ff417f"/>
  </g>
</svg>
