<svg xmlns="http://www.w3.org/2000/svg" width="336.028" height="307.689" viewBox="0 0 336.028 307.689">
  <g id="Group_66" data-name="Group 66" transform="translate(-271.492 -6622.518)">
    <g id="Group_65" data-name="Group 65" transform="translate(272 6623)">
      <path id="Path_229" data-name="Path 229" d="M234.215,172.085c1.784-25.872-3.1-59.728-4.461-74.049-1.784-18.735-44.3-22.248-57.99-25.872-27.493-7.277-56.206-.892-60.666,26.765-3.666,22.73-11.6,30.321-11.6,63.343,0,48.176,22.3,93.676,46.392,93.676C191.392,255.947,230.994,218.783,234.215,172.085Z" transform="translate(-11.177 -35.78)" fill="none" stroke="#000" stroke-miterlimit="10" stroke-width="1"/>
      <path id="Path_230" data-name="Path 230" d="M250,183.049c2.8-14.011,10.087-28.549,14.274-28.549,5.353,0,6.2,13.612,3.569,27.657-2.676,14.274-13.687,27.284-17.843,26.765C242.865,208.029,246.433,200.892,250,183.049Z" transform="translate(-26.964 -44.959)" fill="none" stroke="#000" stroke-miterlimit="10" stroke-width="1"/>
      <path id="Path_231" data-name="Path 231" d="M260.288,183.868c.925-5.09-1.784-9.368-3.569-9.368-2.217,0-5.353,3.569-6.245,9.814-.732,5.122.459,8.921,2.676,8.921S259.4,188.774,260.288,183.868Z" transform="translate(-27.436 -47.116)" fill="none" stroke="#000" stroke-miterlimit="10" stroke-width="1"/>
      <path id="Path_232" data-name="Path 232" d="M265.7,175.957c1.792-7.17,1.221-11-.892-12.49-2.15-1.516-10.055,3.478-11.6,10.706s-4.461,16.951,0,17.843C254.9,192.354,263.919,183.094,265.7,175.957Z" transform="translate(-27.499 -45.897)" fill="none" stroke="#000" stroke-miterlimit="10" stroke-width="1"/>
      <path id="Path_233" data-name="Path 233" d="M234.215,168.022c1.486-6.316,6.245-19.627,12.49-25.872,3.949-3.949,13.2-67.232,8.922-74.941C246.7,51.151,218.4,40.9,184.254,33.308,160.166,27.955,145.2,37.122,132.51,45.8,117.762,55.878,113.5,77.126,111.1,94.866c-3.083,22.817-11.6,30.321-11.6,63.343,0,48.176,22.3,93.676,46.392,93.676,30.952,0,57.739-14.056,73.156-40.147C230.646,192.111,230.646,183.189,234.215,168.022Z" transform="translate(-11.177 -31.717)" fill="none" stroke="#000" stroke-miterlimit="10" stroke-width="1"/>
      <path id="Path_234" data-name="Path 234" d="M236.761,184.5s-8.029,66.019-13.382,79.4c-4.307,10.768-48,72.354-60.666,66.019-17.843-8.922-29.441-37.47-33.9-45.5s-6.9-34.721-5.121-32.275c7.337,10.109,15.923,16.217,24.748,16.217C193.937,268.362,233.54,231.2,236.761,184.5Z" transform="translate(-13.723 -48.194)" fill="none" stroke="#000" stroke-miterlimit="10" stroke-width="1"/>
      <path id="Path_235" data-name="Path 235" d="M214.616,253.5s.892,4.461-4.461,17.843c-4.307,10.768-48,72.354-60.666,66.019-17.843-8.922-29.441-37.47-33.9-45.5s-6.9-34.721-5.121-32.275c0,0-108.232,39.549-109.074,48.334L.5,361.45l334.557.892V331.117C344.024,325.232,214.009,262.308,214.616,253.5Z" transform="translate(-0.5 -55.636)" fill="none" stroke="#000" stroke-miterlimit="10" stroke-width="1"/>
      <path id="Path_236" data-name="Path 236" d="M184.976,228.681c-.837,3.346-31.864-3.569-39.255-3.569s-30.844.751-31.225-2.676c-.892-8.029,15.3-14.5,25.872-16.951,3.525-.818,4.4,2.676,6.245,2.676,1.572,0,5.691-2.682,8.922-1.784C171.593,210.838,186.76,221.544,184.976,228.681Z" transform="translate(-12.791 -50.444)" fill="none" stroke="#000" stroke-miterlimit="10" stroke-width="1"/>
      <path id="Path_237" data-name="Path 237" d="M184.98,230.745c-.837,3.346-31.864-3.569-39.255-3.569s-30.844.751-31.225-2.676a66.768,66.768,0,0,1,15.167,5.353c6.691,3.569,7.137,8.029,16.059,8.922s10.281-2.792,17.843-4.462C173.782,232.057,184.98,230.745,184.98,230.745Z" transform="translate(-12.795 -52.508)" fill="none" stroke="#000" stroke-miterlimit="10" stroke-width="1"/>
      <path id="Path_238" data-name="Path 238" d="M218.46,152.768c-5.353,2.676-14.274-6.245-26.765-6.245-9.608,0-23.2.679-23.2-1.784s14.5-6.845,24.088-6.245C206.862,139.385,220.664,151.666,218.46,152.768Z" transform="translate(-18.619 -43.227)" fill="none" stroke="#000" stroke-miterlimit="10" stroke-width="1"/>
      <path id="Path_239" data-name="Path 239" d="M102.5,140.422c.892-7.137,10.113-8.922,18.735-8.922s21.412,7.137,21.412,10.706-9.814-2.676-19.627-2.676a75.505,75.505,0,0,0-11.5.47C106.8,140.712,102.3,142.033,102.5,140.422Z" transform="translate(-11.5 -42.478)" fill="none" stroke="#000" stroke-miterlimit="10" stroke-width="1"/>
      <path id="Path_240" data-name="Path 240" d="M141.833,156.1c0,2.71-9.814,6.245-19.627,6.245-4.681,0-10.706-6.211-10.706-8.922s4.461-8.922,13.382-8.922C133.848,144.5,141.833,153.388,141.833,156.1Z" transform="translate(-12.471 -43.88)" fill="none" stroke="#000" stroke-miterlimit="10" stroke-width="1"/>
      <path id="Path_241" data-name="Path 241" d="M139.265,155.745c0,.716-2.371.266-5.291.53-3.1.281-6.826,1.254-8.983,1.254-2.213,0-5.351-1.908-8.029-2.676-2.392-.686-4.461-.194-4.461-.892,0-1.478,7.137-4.461,12.49-4.461S139.265,154.267,139.265,155.745Z" transform="translate(-12.579 -44.42)" fill="none" stroke="#000" stroke-miterlimit="10" stroke-width="1"/>
      <ellipse id="Ellipse_23" data-name="Ellipse 23" cx="4.461" cy="3.569" rx="4.461" ry="3.569" transform="translate(107.95 105.08)" fill="none" stroke="#000" stroke-miterlimit="10" stroke-width="1"/>
      <path id="Path_242" data-name="Path 242" d="M213.755,164.1c0,2.463-14.573,7.137-23.2,7.137S174.5,162.993,174.5,160.529s4.314-8.029,12.936-8.029S213.755,161.635,213.755,164.1Z" transform="translate(-19.266 -44.743)" fill="none" stroke="#000" stroke-miterlimit="10" stroke-width="1"/>
      <path id="Path_243" data-name="Path 243" d="M207.833,163.637c0,.719-1.479-.365-4.232-.546-2.9-.191-7.223.522-12.719,1.438-2.243.374-4.641-2.676-7.137-3.569-2.643-.946-6.245-.132-6.245-.892,0-1.478,8.255-3.569,12.936-3.569S207.833,162.159,207.833,163.637Z" transform="translate(-19.589 -45.175)" fill="none" stroke="#000" stroke-miterlimit="10" stroke-width="1"/>
      <path id="Path_244" data-name="Path 244" d="M197.421,160.476a4.486,4.486,0,0,1-8.921,0c0-1.109.085-3.288.892-4.015s2.337,0,3.569,0A4.256,4.256,0,0,1,197.421,160.476Z" transform="translate(-20.776 -45.136)" fill="none" stroke="#000" stroke-miterlimit="10" stroke-width="1"/>
      <path id="Path_245" data-name="Path 245" d="M146.851,170.723c.892-8.029,4.461-25.872,5.353-27.657.428-.856,1.171-3.4,4.461-3.569,3.568-.183,7.044,1.238,8.029,3.569,1.676,3.963-5.353,22.767-5.353,28.549,0,5.036,13.382,10.706,13.382,17.843,0,2.672-1.664,8.249-6.245,8.922-2.189.321-4.718-3.66-7.137-4.461-3.231-1.069-7.9.892-8.029.892-.574,0-8.661,2.211-9.814-6.245C141.166,186.13,145.959,178.753,146.851,170.723Z" transform="translate(-15.705 -43.339)" fill="none" stroke="#000" stroke-miterlimit="10" stroke-width="1"/>
      <path id="Path_246" data-name="Path 246" d="M146.15,170.641c.892-8.029,4.461-25.872,5.353-27.657.428-.856,1.171-3.4,4.461-3.569,3.568-.183-13.657-1.471-11.6,0,6.245,4.461,0,28.549-.892,33.01s-10.706,13.382-8.029,21.412c.254.763,1.222-1.4,4.461-.892,3.914.619,4.434,5.208,8.922,4.461,1.965-.327,3.088-1.187,3.9-1.013,1.4.3,1.871,1.906,4.13,1.906h8.922c-2.189.321-4.718-3.66-7.137-4.461-3.231-1.069-7.9.892-8.029.892-.574,0-8.661,2.211-9.814-6.245C140.465,186.048,145.258,178.67,146.15,170.641Z" transform="translate(-15.004 -43.257)" fill="none" stroke="#000" stroke-miterlimit="10" stroke-width="1"/>
      <path id="Path_247" data-name="Path 247" d="M143.529,202.176c0,.739-1.784.892-3.569.892s-4.461-1.938-4.461-2.676,3.569-.892,4.461-.892S143.529,201.438,143.529,202.176Z" transform="translate(-15.06 -49.812)" fill="none" stroke="#000" stroke-miterlimit="10" stroke-width="1"/>
      <circle id="Ellipse_24" data-name="Ellipse 24" cx="0.892" cy="0.892" r="0.892" transform="translate(180.214 158.609)" fill="none" stroke="#000" stroke-miterlimit="10" stroke-width="1"/>
    </g>
  </g>
</svg>
